<mxfile host="app.diagrams.net" modified="2024-02-06T02:16:06.471Z" agent="Mozilla/5.0 (Windows NT 10.0; Win64; x64) AppleWebKit/537.36 (KHTML, like Gecko) Chrome/121.0.0.0 Safari/537.36" etag="XAcMTs_suz-cbCYyMtVD" version="23.0.2" type="github">
  <diagram id="f106602c-feb2-e66a-4537-3a34d633f6aa" name="Page-1">
    <mxGraphModel dx="3243" dy="1140" grid="1" gridSize="10" guides="1" tooltips="1" connect="0" arrows="0" fold="1" page="1" pageScale="1" pageWidth="1169" pageHeight="827" background="none" math="0" shadow="0">
      <root>
        <mxCell id="0" />
        <mxCell id="1" parent="0" />
        <mxCell id="Ztc3G43oY-TmvTb4-mzX-612" value="" style="group;movable=0;resizable=0;rotatable=0;deletable=0;editable=0;locked=1;connectable=0;" vertex="1" connectable="0" parent="1">
          <mxGeometry y="10" width="1150" height="920" as="geometry" />
        </mxCell>
        <mxCell id="Ztc3G43oY-TmvTb4-mzX-606" value="" style="rounded=0;whiteSpace=wrap;html=1;movable=0;resizable=0;rotatable=0;deletable=0;editable=0;locked=1;connectable=0;" vertex="1" parent="Ztc3G43oY-TmvTb4-mzX-612">
          <mxGeometry width="790" height="920" as="geometry" />
        </mxCell>
        <mxCell id="Ztc3G43oY-TmvTb4-mzX-607" value="" style="rounded=0;whiteSpace=wrap;html=1;movable=0;resizable=0;rotatable=0;deletable=0;editable=0;locked=1;connectable=0;" vertex="1" parent="Ztc3G43oY-TmvTb4-mzX-612">
          <mxGeometry x="800" width="170" height="920" as="geometry" />
        </mxCell>
        <mxCell id="Ztc3G43oY-TmvTb4-mzX-608" value="" style="rounded=0;whiteSpace=wrap;html=1;movable=0;resizable=0;rotatable=0;deletable=0;editable=0;locked=1;connectable=0;" vertex="1" parent="Ztc3G43oY-TmvTb4-mzX-612">
          <mxGeometry x="980" width="170" height="920" as="geometry" />
        </mxCell>
        <mxCell id="Ztc3G43oY-TmvTb4-mzX-609" value="&lt;pre&gt;Google Cloud Platform&lt;/pre&gt;" style="text;html=1;strokeColor=none;fillColor=none;align=center;verticalAlign=middle;whiteSpace=wrap;rounded=0;movable=0;resizable=0;rotatable=0;deletable=0;editable=0;locked=1;connectable=0;" vertex="1" parent="Ztc3G43oY-TmvTb4-mzX-612">
          <mxGeometry x="320" width="150" height="29.629629629629633" as="geometry" />
        </mxCell>
        <mxCell id="Ztc3G43oY-TmvTb4-mzX-610" value="&lt;pre&gt;IBM cloud&lt;/pre&gt;" style="text;html=1;strokeColor=none;fillColor=none;align=center;verticalAlign=middle;whiteSpace=wrap;rounded=0;movable=0;resizable=0;rotatable=0;deletable=0;editable=0;locked=1;connectable=0;" vertex="1" parent="Ztc3G43oY-TmvTb4-mzX-612">
          <mxGeometry x="810" width="150" height="29.629629629629633" as="geometry" />
        </mxCell>
        <mxCell id="Ztc3G43oY-TmvTb4-mzX-611" value="&lt;pre&gt;Azure&lt;/pre&gt;" style="text;html=1;strokeColor=none;fillColor=none;align=center;verticalAlign=middle;whiteSpace=wrap;rounded=0;movable=0;resizable=0;rotatable=0;deletable=0;editable=0;locked=1;connectable=0;" vertex="1" parent="Ztc3G43oY-TmvTb4-mzX-612">
          <mxGeometry x="990" width="150" height="29.629629629629633" as="geometry" />
        </mxCell>
        <mxCell id="Ztc3G43oY-TmvTb4-mzX-613" value="" style="rounded=0;whiteSpace=wrap;html=1;fillColor=none;dashed=1;dashPattern=12 12;strokeColor=#CC0000;strokeWidth=2;movable=0;resizable=0;rotatable=0;deletable=0;editable=0;locked=1;connectable=0;" vertex="1" parent="Ztc3G43oY-TmvTb4-mzX-612">
          <mxGeometry x="25" y="128.4" width="740" height="771.6" as="geometry" />
        </mxCell>
        <mxCell id="Ztc3G43oY-TmvTb4-mzX-618" value="&lt;pre&gt;&lt;pre style=&quot;border-color: var(--border-color);&quot;&gt;&lt;font style=&quot;border-color: var(--border-color); font-size: 13px;&quot;&gt;Organization&lt;/font&gt;&lt;/pre&gt;&lt;/pre&gt;" style="text;html=1;strokeColor=none;fillColor=none;align=center;verticalAlign=middle;whiteSpace=wrap;rounded=0;movable=0;resizable=0;rotatable=0;deletable=0;editable=0;locked=1;connectable=0;" vertex="1" parent="Ztc3G43oY-TmvTb4-mzX-612">
          <mxGeometry x="350" y="128.39506172839506" width="90" height="19.75308641975309" as="geometry" />
        </mxCell>
        <mxCell id="Ztc3G43oY-TmvTb4-mzX-619" value="" style="rounded=0;whiteSpace=wrap;html=1;movable=0;resizable=0;rotatable=0;deletable=0;editable=0;locked=1;connectable=0;" vertex="1" parent="Ztc3G43oY-TmvTb4-mzX-612">
          <mxGeometry x="200" y="177.77777777777777" width="530" height="177.77777777777777" as="geometry" />
        </mxCell>
        <mxCell id="Ztc3G43oY-TmvTb4-mzX-620" value="" style="rounded=0;whiteSpace=wrap;html=1;movable=0;resizable=0;rotatable=0;deletable=0;editable=0;locked=1;connectable=0;" vertex="1" parent="Ztc3G43oY-TmvTb4-mzX-612">
          <mxGeometry x="200" y="375.30864197530866" width="530" height="177.77777777777777" as="geometry" />
        </mxCell>
        <mxCell id="Ztc3G43oY-TmvTb4-mzX-621" value="" style="rounded=0;whiteSpace=wrap;html=1;movable=0;resizable=0;rotatable=0;deletable=0;editable=0;locked=1;connectable=0;" vertex="1" parent="Ztc3G43oY-TmvTb4-mzX-612">
          <mxGeometry x="200" y="572.8395061728395" width="530" height="177.77777777777777" as="geometry" />
        </mxCell>
        <mxCell id="Ztc3G43oY-TmvTb4-mzX-622" value="&lt;pre&gt;&lt;pre style=&quot;border-color: var(--border-color);&quot;&gt;&lt;font style=&quot;border-color: var(--border-color); font-size: 13px;&quot;&gt;northamerica-northeast1(Montreal)&lt;/font&gt;&lt;/pre&gt;&lt;/pre&gt;" style="text;html=1;strokeColor=none;fillColor=none;align=center;verticalAlign=middle;whiteSpace=wrap;rounded=0;movable=0;resizable=0;rotatable=0;deletable=0;editable=0;locked=1;connectable=0;" vertex="1" parent="Ztc3G43oY-TmvTb4-mzX-612">
          <mxGeometry x="490" y="177.77777777777777" width="240" height="19.75308641975309" as="geometry" />
        </mxCell>
        <mxCell id="Ztc3G43oY-TmvTb4-mzX-623" value="&lt;pre&gt;&lt;pre style=&quot;border-color: var(--border-color);&quot;&gt;&lt;font style=&quot;border-color: var(--border-color); font-size: 13px;&quot;&gt;us-central1(Ioawa)&lt;/font&gt;&lt;/pre&gt;&lt;/pre&gt;" style="text;html=1;strokeColor=none;fillColor=none;align=center;verticalAlign=middle;whiteSpace=wrap;rounded=0;movable=0;resizable=0;rotatable=0;deletable=0;editable=0;locked=1;connectable=0;" vertex="1" parent="Ztc3G43oY-TmvTb4-mzX-612">
          <mxGeometry x="590" y="375.30864197530866" width="140" height="19.75308641975309" as="geometry" />
        </mxCell>
        <mxCell id="Ztc3G43oY-TmvTb4-mzX-624" value="&lt;pre&gt;&lt;pre style=&quot;border-color: var(--border-color);&quot;&gt;&lt;font style=&quot;border-color: var(--border-color); font-size: 13px;&quot;&gt;us-central2(Oklahoma-private GVP region)&lt;/font&gt;&lt;/pre&gt;&lt;/pre&gt;" style="text;html=1;strokeColor=none;fillColor=none;align=center;verticalAlign=middle;whiteSpace=wrap;rounded=0;movable=0;resizable=0;rotatable=0;deletable=0;editable=0;locked=1;connectable=0;" vertex="1" parent="Ztc3G43oY-TmvTb4-mzX-612">
          <mxGeometry x="465" y="572.8395061728395" width="240" height="19.75308641975309" as="geometry" />
        </mxCell>
        <mxCell id="Ztc3G43oY-TmvTb4-mzX-625" value="" style="rounded=0;whiteSpace=wrap;html=1;fillColor=none;dashed=1;strokeWidth=3;strokeColor=#FFD470;movable=0;resizable=0;rotatable=0;deletable=0;editable=0;locked=1;connectable=0;" vertex="1" parent="Ztc3G43oY-TmvTb4-mzX-612">
          <mxGeometry x="40" y="207.41" width="520" height="682.59" as="geometry" />
        </mxCell>
        <mxCell id="Ztc3G43oY-TmvTb4-mzX-626" value="" style="rounded=0;whiteSpace=wrap;html=1;fillColor=none;dashed=1;strokeWidth=3;strokeColor=#FFD470;movable=0;resizable=0;rotatable=0;deletable=0;editable=0;locked=1;connectable=0;" vertex="1" parent="Ztc3G43oY-TmvTb4-mzX-612">
          <mxGeometry x="571" y="207.41" width="180" height="682.59" as="geometry" />
        </mxCell>
        <mxCell id="Ztc3G43oY-TmvTb4-mzX-590" value="" style="strokeColor=#dddddd;shadow=1;strokeWidth=1;rounded=1;absoluteArcSize=1;arcSize=2;movable=1;resizable=1;rotatable=1;deletable=1;editable=1;locked=0;connectable=1;" vertex="1" parent="1">
          <mxGeometry x="-500" y="440" width="160" height="60" as="geometry" />
        </mxCell>
        <mxCell id="Ztc3G43oY-TmvTb4-mzX-591" value="&lt;pre&gt;&lt;font color=&quot;#000000&quot;&gt;Firebase&lt;br&gt;&lt;/font&gt;web/mobile client&lt;/pre&gt;" style="sketch=0;dashed=0;connectable=1;html=1;fillColor=#5184F3;strokeColor=none;shape=mxgraph.gcp2.firebase;part=1;labelPosition=right;verticalLabelPosition=middle;align=left;verticalAlign=middle;spacingLeft=5;fontColor=#999999;fontSize=12;movable=1;resizable=1;rotatable=1;deletable=1;editable=1;locked=0;" vertex="1" parent="Ztc3G43oY-TmvTb4-mzX-590">
          <mxGeometry width="32.4" height="45" relative="1" as="geometry">
            <mxPoint x="5" y="7" as="offset" />
          </mxGeometry>
        </mxCell>
        <mxCell id="Ztc3G43oY-TmvTb4-mzX-592" value="" style="group;movable=1;resizable=1;rotatable=1;deletable=1;editable=1;locked=0;connectable=1;" vertex="1" connectable="0" parent="1">
          <mxGeometry x="-279.995" y="272.21500000000003" width="249.20000000000005" height="395.56999999999994" as="geometry" />
        </mxCell>
        <mxCell id="Ztc3G43oY-TmvTb4-mzX-588" value="" style="image;aspect=fixed;perimeter=ellipsePerimeter;html=1;align=center;shadow=0;dashed=0;spacingTop=3;image=img/lib/active_directory/internet_cloud.svg;rotation=90;movable=1;resizable=1;rotatable=1;deletable=1;editable=1;locked=0;connectable=1;" vertex="1" parent="Ztc3G43oY-TmvTb4-mzX-592">
          <mxGeometry x="-73.185" y="73.18499999999997" width="395.57" height="249.2" as="geometry" />
        </mxCell>
        <mxCell id="Ztc3G43oY-TmvTb4-mzX-589" value="&lt;pre&gt;&lt;pre style=&quot;border-color: var(--border-color);&quot;&gt;&lt;font style=&quot;border-color: var(--border-color); font-size: 17px;&quot;&gt;Internet&lt;/font&gt;&lt;/pre&gt;&lt;/pre&gt;" style="text;html=1;strokeColor=none;fillColor=none;align=center;verticalAlign=middle;whiteSpace=wrap;rounded=0;movable=1;resizable=1;rotatable=1;deletable=1;editable=1;locked=0;connectable=1;" vertex="1" parent="Ztc3G43oY-TmvTb4-mzX-592">
          <mxGeometry x="46.815000000000026" y="172.585" width="140" height="50.4" as="geometry" />
        </mxCell>
        <mxCell id="Ztc3G43oY-TmvTb4-mzX-742" value="" style="endArrow=classic;html=1;rounded=0;strokeWidth=3;strokeColor=#CCE5FF;" edge="1" parent="Ztc3G43oY-TmvTb4-mzX-592">
          <mxGeometry width="50" height="50" relative="1" as="geometry">
            <mxPoint x="-20.004999999999995" y="317.78499999999997" as="sourcePoint" />
            <mxPoint x="329.995" y="317.78499999999997" as="targetPoint" />
          </mxGeometry>
        </mxCell>
        <mxCell id="Ztc3G43oY-TmvTb4-mzX-743" value="" style="endArrow=classic;html=1;rounded=0;strokeWidth=3;strokeColor=#CCE5FF;" edge="1" parent="Ztc3G43oY-TmvTb4-mzX-592" target="Ztc3G43oY-TmvTb4-mzX-712">
          <mxGeometry width="50" height="50" relative="1" as="geometry">
            <mxPoint x="-20.004999999999995" y="207.78499999999997" as="sourcePoint" />
            <mxPoint x="489.995" y="297.78499999999997" as="targetPoint" />
            <Array as="points">
              <mxPoint x="109.995" y="257.78499999999997" />
              <mxPoint x="329.995" y="257.78499999999997" />
              <mxPoint x="469.995" y="257.78499999999997" />
              <mxPoint x="479.995" y="297.78499999999997" />
            </Array>
          </mxGeometry>
        </mxCell>
        <mxCell id="Ztc3G43oY-TmvTb4-mzX-744" value="" style="endArrow=classic;html=1;rounded=0;strokeWidth=3;strokeColor=#CCE5FF;" edge="1" parent="Ztc3G43oY-TmvTb4-mzX-592">
          <mxGeometry width="50" height="50" relative="1" as="geometry">
            <mxPoint x="-20.004999999999995" y="97.78499999999997" as="sourcePoint" />
            <mxPoint x="329.995" y="97.78499999999997" as="targetPoint" />
          </mxGeometry>
        </mxCell>
        <mxCell id="Ztc3G43oY-TmvTb4-mzX-639" value="  Firebase Auth/&#xa;Identify&#xa;Platform&#xa;(global)" style="strokeColor=#dddddd;shadow=1;strokeWidth=1;rounded=1;absoluteArcSize=1;arcSize=27;movable=1;resizable=1;rotatable=1;deletable=1;editable=1;locked=0;connectable=1;fontFamily=Lucida Console;fillColor=#CCE5FF;" vertex="1" parent="1">
          <mxGeometry x="49" y="230" width="140" height="80" as="geometry" />
        </mxCell>
        <mxCell id="Ztc3G43oY-TmvTb4-mzX-640" value="&lt;pre&gt;&lt;br&gt;&lt;/pre&gt;" style="sketch=0;dashed=0;connectable=1;html=1;fillColor=#5184F3;strokeColor=none;shape=mxgraph.gcp2.firebase;part=1;labelPosition=right;verticalLabelPosition=middle;align=left;verticalAlign=middle;spacingLeft=5;fontColor=#999999;fontSize=12;movable=1;resizable=1;rotatable=1;deletable=1;editable=1;locked=0;" vertex="1" parent="Ztc3G43oY-TmvTb4-mzX-639">
          <mxGeometry width="20" height="30" relative="1" as="geometry">
            <mxPoint x="5" y="7" as="offset" />
          </mxGeometry>
        </mxCell>
        <mxCell id="Ztc3G43oY-TmvTb4-mzX-645" value="Firebase &#xa;Hosting (global)" style="strokeColor=#dddddd;shadow=1;strokeWidth=1;rounded=1;absoluteArcSize=1;arcSize=26;movable=1;resizable=1;rotatable=1;deletable=1;editable=1;locked=0;connectable=1;fontFamily=Lucida Console;fillColor=#CCE5FF;" vertex="1" parent="1">
          <mxGeometry x="49" y="542.39" width="140" height="80" as="geometry" />
        </mxCell>
        <mxCell id="Ztc3G43oY-TmvTb4-mzX-646" value="&lt;pre&gt;&lt;br&gt;&lt;/pre&gt;" style="sketch=0;dashed=0;connectable=1;html=1;fillColor=#5184F3;strokeColor=none;shape=mxgraph.gcp2.firebase;part=1;labelPosition=right;verticalLabelPosition=middle;align=left;verticalAlign=middle;spacingLeft=5;fontColor=#999999;fontSize=12;movable=1;resizable=1;rotatable=1;deletable=1;editable=1;locked=0;" vertex="1" parent="Ztc3G43oY-TmvTb4-mzX-645">
          <mxGeometry width="20" height="30" relative="1" as="geometry">
            <mxPoint x="5" y="7" as="offset" />
          </mxGeometry>
        </mxCell>
        <mxCell id="Ztc3G43oY-TmvTb4-mzX-663" value="" style="strokeColor=#dddddd;shadow=1;strokeWidth=1;rounded=1;absoluteArcSize=1;arcSize=26;fillColor=#CCE5FF;" vertex="1" parent="1">
          <mxGeometry x="48" y="330" width="140" height="83.5" as="geometry" />
        </mxCell>
        <mxCell id="Ztc3G43oY-TmvTb4-mzX-664" value="&lt;pre&gt;&lt;font color=&quot;#000000&quot;&gt;Cloud Armor&lt;br&gt;&lt;/font&gt;&lt;font color=&quot;#000000&quot;&gt;(global)&lt;/font&gt;&lt;/pre&gt;" style="editableCssRules=.*;html=1;fontColor=#999999;shape=image;verticalLabelPosition=middle;verticalAlign=middle;labelPosition=right;align=left;spacingLeft=20;part=1;points=[];imageAspect=0;image=data:image/svg+xml,PHN2ZyB4bWxucz0iaHR0cDovL3d3dy53My5vcmcvMjAwMC9zdmciIHhtbG5zOnY9Imh0dHBzOi8vdmVjdGEuaW8vbmFubyIgd2lkdGg9IjE2LjUwMDQzNDg3NTQ4ODI4IiBoZWlnaHQ9IjIwIiB2aWV3Qm94PSItMC4wMDAzNjMwODkyNjA2NDUyMTA3NCAxLjE5MjA5Mjg5NTUwNzgxMjVlLTcgMTYuNTAwNDM0ODc1NDg4MjggMjAiPiYjeGE7CTxzdHlsZSB0eXBlPSJ0ZXh0L2NzcyI+JiN4YTsJLnN0MHtmaWxsOiM2NjlkZjY7fSYjeGE7CS5zdDF7ZmlsbDojYWVjYmZhO30mI3hhOwk8L3N0eWxlPiYjeGE7CTxwYXRoIGNsYXNzPSJzdDEiIGQ9Ik0xMC40MiAxMi4wN2wxLjA0IDEuMDUtNS40NSA1LjQ4LTEuMDQtMS4wNXptLS44My00LjE5bDEuMDQgMS4wNS03LjM1IDcuMzktMS4wNC0xLjA1em0tNC4xNi0uODVsMS4wNCAxLjA1LTQuODggNC45LTEuMDQtMS4wNXoiLz4mI3hhOwk8ZyBjbGFzcz0ic3QwIj4mI3hhOwkJPHBhdGggZD0iTTguMjUgMS42MWw2Ljc4IDN2NC41NWE5LjcxIDkuNzEgMCAwIDEtNi43OCA5LjMyIDkuNyA5LjcgMCAwIDEtNi43OC05LjMxVjQuNjNsNi43OC0zbTAtMS42M0wwIDMuNjh2NS40OUExMS4xNyAxMS4xNyAwIDAgMCA4LjEgMjBoLjE1LjE1YTExLjE3IDExLjE3IDAgMCAwIDguMS0xMC43OFYzLjY4eiIvPiYjeGE7CQk8Y2lyY2xlIGN4PSIxMC45NCIgY3k9IjEyLjYyIiByPSIxLjQyIi8+JiN4YTsJCTxjaXJjbGUgY3g9IjEwLjEiIGN5PSI4LjQ1IiByPSIxLjQyIi8+JiN4YTsJCTxjaXJjbGUgY3g9IjUuOTQiIGN5PSI3LjYiIHI9IjEuNDIiLz4mI3hhOwk8L2c+JiN4YTs8L3N2Zz4=;" vertex="1" parent="Ztc3G43oY-TmvTb4-mzX-663">
          <mxGeometry width="20" height="20" relative="1" as="geometry">
            <mxPoint x="17" y="15" as="offset" />
          </mxGeometry>
        </mxCell>
        <mxCell id="Ztc3G43oY-TmvTb4-mzX-667" value="" style="strokeColor=#dddddd;shadow=1;strokeWidth=1;rounded=1;absoluteArcSize=1;arcSize=26;fillColor=#CCE5FF;" vertex="1" parent="1">
          <mxGeometry x="49" y="440" width="140" height="80" as="geometry" />
        </mxCell>
        <mxCell id="Ztc3G43oY-TmvTb4-mzX-668" value="&lt;pre style=&quot;text-align: center;&quot;&gt;HTTPS&lt;br&gt;Load Balancer&lt;br&gt;&lt;span style=&quot;background-color: initial;&quot;&gt;(global)&lt;/span&gt;&lt;/pre&gt;" style="sketch=0;dashed=0;connectable=0;html=1;fillColor=#757575;strokeColor=none;shape=mxgraph.gcp2.network_load_balancer;part=1;labelPosition=right;verticalLabelPosition=middle;align=left;verticalAlign=middle;spacingLeft=5;fontSize=12;" vertex="1" parent="Ztc3G43oY-TmvTb4-mzX-667">
          <mxGeometry y="0.5" width="32" height="32" relative="1" as="geometry">
            <mxPoint x="5" y="-16" as="offset" />
          </mxGeometry>
        </mxCell>
        <mxCell id="Ztc3G43oY-TmvTb4-mzX-677" value="" style="strokeColor=#dddddd;shadow=1;strokeWidth=1;rounded=1;absoluteArcSize=1;arcSize=28;fillColor=#CCE5FF;" vertex="1" parent="1">
          <mxGeometry x="48" y="640" width="140" height="80" as="geometry" />
        </mxCell>
        <mxCell id="Ztc3G43oY-TmvTb4-mzX-678" value="&lt;pre&gt;&lt;font color=&quot;#000000&quot;&gt;Cloud Storage&lt;br&gt;&lt;/font&gt;&lt;font color=&quot;#000000&quot;&gt;(multi-region)&lt;/font&gt;&lt;/pre&gt;" style="editableCssRules=.*;html=1;fontColor=#999999;shape=image;verticalLabelPosition=middle;verticalAlign=middle;labelPosition=right;align=left;spacingLeft=20;part=1;points=[];imageAspect=0;image=data:image/svg+xml,PHN2ZyB4bWxucz0iaHR0cDovL3d3dy53My5vcmcvMjAwMC9zdmciIHhtbG5zOnY9Imh0dHBzOi8vdmVjdGEuaW8vbmFubyIgd2lkdGg9IjIwIiBoZWlnaHQ9IjE2IiB2aWV3Qm94PSIwIDAgMjAgMTYiPiYjeGE7CTxzdHlsZSB0eXBlPSJ0ZXh0L2NzcyI+JiN4YTsJLnN0MHtmaWxsOiM0Mjg1ZjQ7fSYjeGE7CS5zdDF7ZmlsbDojNjY5ZGY2O30mI3hhOwkuc3Qye2ZpbGw6I2FlY2JmYTt9JiN4YTsJLnN0M3tmaWxsOiNmZmY7fSYjeGE7CTwvc3R5bGU+JiN4YTsJPHBhdGggY2xhc3M9InN0MiIgZD0iTTAgMGgyMHY3SDB6Ii8+JiN4YTsJPHBhdGggY2xhc3M9InN0MSIgZD0iTTE4IDBoMnY3aC0yeiIvPiYjeGE7CTxwYXRoIGNsYXNzPSJzdDAiIGQ9Ik0xOCA3bDItN2gtMnoiLz4mI3hhOwk8cGF0aCBjbGFzcz0ic3QxIiBkPSJNMCAwaDJ2N0gweiIvPiYjeGE7CTxnIGNsYXNzPSJzdDMiPiYjeGE7CQk8cGF0aCBkPSJNNCAzaDZ2MUg0eiIvPiYjeGE7CQk8cmVjdCB4PSIxMyIgeT0iMiIgd2lkdGg9IjMiIGhlaWdodD0iMyIgcng9IjEuNSIvPiYjeGE7CTwvZz4mI3hhOwk8cGF0aCBjbGFzcz0ic3QyIiBkPSJNMCA5aDIwdjdIMHoiLz4mI3hhOwk8cGF0aCBjbGFzcz0ic3QxIiBkPSJNMTggOWgydjdoLTJ6Ii8+JiN4YTsJPHBhdGggY2xhc3M9InN0MCIgZD0iTTE4IDE2bDItN2gtMnoiLz4mI3hhOwk8cGF0aCBjbGFzcz0ic3QxIiBkPSJNMCA5aDJ2N0gweiIvPiYjeGE7CTxnIGNsYXNzPSJzdDMiPiYjeGE7CQk8cGF0aCBkPSJNNCAxMmg2djFINHoiLz4mI3hhOwkJPHJlY3QgeD0iMTMiIHk9IjExIiB3aWR0aD0iMyIgaGVpZ2h0PSIzIiByeD0iMS41Ii8+JiN4YTsJPC9nPiYjeGE7PC9zdmc+;" vertex="1" parent="Ztc3G43oY-TmvTb4-mzX-677">
          <mxGeometry width="20" height="20" relative="1" as="geometry">
            <mxPoint x="15" y="18" as="offset" />
          </mxGeometry>
        </mxCell>
        <mxCell id="Ztc3G43oY-TmvTb4-mzX-679" value="" style="shape=process;whiteSpace=wrap;html=1;backgroundOutline=1;" vertex="1" parent="1">
          <mxGeometry x="550" y="50" width="120" height="60" as="geometry" />
        </mxCell>
        <mxCell id="Ztc3G43oY-TmvTb4-mzX-680" value="&lt;pre&gt;Apigee Edge&lt;/pre&gt;" style="text;html=1;strokeColor=none;fillColor=none;align=center;verticalAlign=middle;whiteSpace=wrap;rounded=0;movable=1;resizable=1;rotatable=1;deletable=1;editable=1;locked=0;connectable=1;" vertex="1" parent="1">
          <mxGeometry x="555" y="65.17999999999999" width="115" height="29.63" as="geometry" />
        </mxCell>
        <mxCell id="Ztc3G43oY-TmvTb4-mzX-721" value="Firebase &#xa;Cloud Funtions" style="strokeColor=#dddddd;shadow=1;strokeWidth=1;rounded=1;absoluteArcSize=1;arcSize=26;movable=1;resizable=1;rotatable=1;deletable=1;editable=1;locked=0;connectable=1;fontFamily=Lucida Console;fillColor=#CCE5FF;" vertex="1" parent="1">
          <mxGeometry x="390" y="430" width="140" height="80" as="geometry" />
        </mxCell>
        <mxCell id="Ztc3G43oY-TmvTb4-mzX-723" value="&lt;br&gt;" style="sketch=0;html=1;verticalAlign=top;labelPosition=center;verticalLabelPosition=bottom;align=center;spacingTop=-6;fontSize=11;fontStyle=1;fontColor=#999999;shape=image;aspect=fixed;imageAspect=0;image=data:image/svg+xml,PHN2ZyB4bWxucz0iaHR0cDovL3d3dy53My5vcmcvMjAwMC9zdmciIHhtbG5zOnY9Imh0dHBzOi8vdmVjdGEuaW8vbmFubyIgd2lkdGg9IjIwIiBoZWlnaHQ9IjE5Ljk4OTk5OTc3MTExODE2NCIgdmlld0JveD0iMCAwIDIwIDE5Ljk4OTk5OTc3MTExODE2NCI+JiN4YTsJPHN0eWxlIHR5cGU9InRleHQvY3NzIj4mI3hhOwkuc3Qwe2ZpbGw6IzQyODVmNDt9JiN4YTsJLnN0MXtmaWxsOiM2NjlkZjY7fSYjeGE7CS5zdDJ7ZmlsbDojYWVjYmZhO30mI3hhOwk8L3N0eWxlPiYjeGE7CTxwYXRoIGNsYXNzPSJzdDEiIGQ9Ik0zIDMuOTlMMCA2LjQydjcuMTNsMyAyLjQ0eiIvPiYjeGE7CTxwYXRoIGNsYXNzPSJzdDAiIGQ9Ik0zIDMuOTlsLTMgNCAzLTJ6bS0zIDhsMyA0di0yeiIvPiYjeGE7CTxwYXRoIGNsYXNzPSJzdDIiIGQ9Ik0wIDE1Ljk5bDQgNCAyLTItNi02em0uMDEtOEw1Ljk5IDJsLTItMkwwIDMuOTl6Ii8+JiN4YTsJPHBhdGggY2xhc3M9InN0MSIgZD0iTTE3IDE2bDMtMi40MlY2LjQ0TDE3IDR6Ii8+JiN4YTsJPHBhdGggY2xhc3M9InN0MCIgZD0iTTE3IDE2bDMtNC0zIDJ6bTMtOGwtMy00djJ6Ii8+JiN4YTsJPGcgY2xhc3M9InN0MiI+JiN4YTsJCTxwYXRoIGQ9Ik0yMCA0bC00LTQtMiAyIDYgNnptLS4wMSA4bC01Ljk4IDUuOTkgMiAyTDIwIDE2eiIvPiYjeGE7CQk8Y2lyY2xlIGN4PSI2IiBjeT0iOS45OSIgcj0iMSIvPiYjeGE7CQk8Y2lyY2xlIGN4PSIxMCIgY3k9IjkuOTkiIHI9IjEiLz4mI3hhOwkJPGNpcmNsZSBjeD0iMTMuOTkiIGN5PSI5Ljk5IiByPSIxIi8+JiN4YTsJPC9nPiYjeGE7PC9zdmc+;" vertex="1" parent="1">
          <mxGeometry x="396" y="438" width="24.71" height="20" as="geometry" />
        </mxCell>
        <mxCell id="Ztc3G43oY-TmvTb4-mzX-725" value="" style="strokeColor=#dddddd;shadow=1;strokeWidth=1;rounded=1;absoluteArcSize=1;arcSize=34;fillColor=#CCE5FF;" vertex="1" parent="1">
          <mxGeometry x="130" y="790" width="140" height="80" as="geometry" />
        </mxCell>
        <mxCell id="Ztc3G43oY-TmvTb4-mzX-726" value="&lt;pre&gt;&lt;font color=&quot;#000000&quot;&gt;Cloud&lt;br&gt;Logging&lt;br&gt;(global)&lt;/font&gt;&lt;/pre&gt;" style="editableCssRules=.*;html=1;fontColor=#999999;shape=image;verticalLabelPosition=middle;verticalAlign=middle;labelPosition=right;align=left;spacingLeft=20;part=1;points=[];imageAspect=0;image=data:image/svg+xml,PHN2ZyB4bWxucz0iaHR0cDovL3d3dy53My5vcmcvMjAwMC9zdmciIHhtbG5zOnY9Imh0dHBzOi8vdmVjdGEuaW8vbmFubyIgd2lkdGg9IjIwIiBoZWlnaHQ9IjE5IiB2aWV3Qm94PSIwIDAgMjAgMTkiPiYjeGE7CTxzdHlsZSB0eXBlPSJ0ZXh0L2NzcyI+JiN4YTsJLnN0MHtmaWxsOiM0Mjg1ZjQ7fSYjeGE7CS5zdDF7ZmlsbDojNjY5ZGY2O30mI3hhOwkuc3Qye2ZpbGw6I2FlY2JmYTt9JiN4YTsJPC9zdHlsZT4mI3hhOwk8ZyBjbGFzcz0ic3QwIj4mI3hhOwkJPHBhdGggZD0iTTQgOWg0djJINHptLTIgN2g2djJIMnoiLz4mI3hhOwkJPHBhdGggZD0iTTQgNEgydjEyaDJ6Ii8+JiN4YTsJPC9nPiYjeGE7CTxwYXRoIGNsYXNzPSJzdDEiIGQ9Ik0yMCAxSDd2NGgxM3ptMCA3SDd2NGgxM3ptMCA3SDd2NGgxM3oiLz4mI3hhOwk8cGF0aCBjbGFzcz0ic3QyIiBkPSJNNiAwSDB2Nmg2eiIvPiYjeGE7PC9zdmc+;" vertex="1" parent="Ztc3G43oY-TmvTb4-mzX-725">
          <mxGeometry width="20" height="20" relative="1" as="geometry">
            <mxPoint x="15" y="16" as="offset" />
          </mxGeometry>
        </mxCell>
        <mxCell id="Ztc3G43oY-TmvTb4-mzX-727" value="" style="strokeColor=#dddddd;shadow=1;strokeWidth=1;rounded=1;absoluteArcSize=1;arcSize=28;fillColor=#CCE5FF;" vertex="1" parent="1">
          <mxGeometry x="330" y="790" width="140" height="80" as="geometry" />
        </mxCell>
        <mxCell id="Ztc3G43oY-TmvTb4-mzX-728" value="&lt;pre&gt;&lt;font color=&quot;#000000&quot;&gt;Cloud&lt;br&gt;&lt;/font&gt;&lt;font color=&quot;#000000&quot;&gt;Monitoring&lt;br&gt;&lt;/font&gt;&lt;font color=&quot;#000000&quot;&gt;(global)&lt;/font&gt;&lt;/pre&gt;" style="editableCssRules=.*;html=1;fontColor=#999999;shape=image;verticalLabelPosition=middle;verticalAlign=middle;labelPosition=right;align=left;spacingLeft=20;part=1;points=[];imageAspect=0;image=data:image/svg+xml,PHN2ZyB4bWxucz0iaHR0cDovL3d3dy53My5vcmcvMjAwMC9zdmciIHhtbG5zOnY9Imh0dHBzOi8vdmVjdGEuaW8vbmFubyIgd2lkdGg9IjIwIiBoZWlnaHQ9IjEzLjUyOTk5OTczMjk3MTE5MSIgdmlld0JveD0iLTIuOTMyMDk3ODk3ODEyMDE0ZS05IC01LjI1ODAxNTA0MTgzNzk1NmUtMTUgMjAgMTMuNTI5OTk5NzMyOTcxMTkxIj4mI3hhOwk8c3R5bGUgdHlwZT0idGV4dC9jc3MiPiYjeGE7CS5zdDB7ZmlsbDojNDI4NWY0O30mI3hhOwkuc3Qxe2ZpbGw6IzY2OWRmNjt9JiN4YTsJPC9zdHlsZT4mI3hhOwk8cGF0aCBjbGFzcz0ic3QxIiBkPSJNOC44MyAxMC41OGgyLjMzdjIuNjRIOC44M3oiLz4mI3hhOwk8cGF0aCBjbGFzcz0ic3QwIiBkPSJNMTYuNDggOC42MWEuNTYuNTYgMCAwIDEtLjQtLjE3TDEyIDQuMjEgOS4yNiA3LjFhLjU3LjU3IDAgMCAxLS43Ni4wNUw2LjQyIDUuNDdsLTIuMiAyLjkyYS41Ni41NiAwIDAgMS0uNDUuMjJIMHYxLjcxYS43NS43NSAwIDAgMCAuNzQuNzVoMTguNTJhLjc1Ljc1IDAgMCAwIC43NC0uNzVWOC42MXoiLz4mI3hhOwk8cGF0aCBjbGFzcz0ic3QxIiBkPSJNMy41IDcuNWwyLjM4LTMuMTZhLjU1LjU1IDAgMCAxIC4zNy0uMjIuNjMuNjMgMCAwIDEgLjQyLjEybDIuMTIgMS43MiAyLjgtMi45NGEuNTQuNTQgMCAwIDEgLjQtLjE3aDBhLjU0LjU0IDAgMCAxIC40LjE3bDQuMzMgNC40OEgyMFYuNzRhLjc0Ljc0IDAgMCAwLS43NC0uNzRILjc0QS43NC43NCAwIDAgMCAwIC43NHY2LjgxeiIvPiYjeGE7CTxyZWN0IGNsYXNzPSJzdDAiIHg9IjYuNjciIHk9IjEyLjkyIiB3aWR0aD0iNi42NyIgaGVpZ2h0PSIuNjEiIHJ4PSIuMyIvPiYjeGE7PC9zdmc+;" vertex="1" parent="Ztc3G43oY-TmvTb4-mzX-727">
          <mxGeometry width="30" height="21" relative="1" as="geometry">
            <mxPoint x="15" y="19" as="offset" />
          </mxGeometry>
        </mxCell>
        <mxCell id="Ztc3G43oY-TmvTb4-mzX-729" value="" style="group" vertex="1" connectable="0" parent="1">
          <mxGeometry x="820" y="261" width="150" height="60" as="geometry" />
        </mxCell>
        <mxCell id="Ztc3G43oY-TmvTb4-mzX-700" value="" style="shape=process;whiteSpace=wrap;html=1;backgroundOutline=1;" vertex="1" parent="Ztc3G43oY-TmvTb4-mzX-729">
          <mxGeometry x="15" width="120" height="60" as="geometry" />
        </mxCell>
        <mxCell id="Ztc3G43oY-TmvTb4-mzX-701" value="&lt;pre&gt;ISAM&lt;/pre&gt;" style="text;html=1;strokeColor=none;fillColor=none;align=center;verticalAlign=middle;whiteSpace=wrap;rounded=0;movable=1;resizable=1;rotatable=1;deletable=1;editable=1;locked=0;connectable=1;" vertex="1" parent="Ztc3G43oY-TmvTb4-mzX-729">
          <mxGeometry y="15.189999999999998" width="150" height="29.629629629629633" as="geometry" />
        </mxCell>
        <mxCell id="Ztc3G43oY-TmvTb4-mzX-730" value="" style="group" vertex="1" connectable="0" parent="1">
          <mxGeometry x="990" y="261" width="150" height="60" as="geometry" />
        </mxCell>
        <mxCell id="Ztc3G43oY-TmvTb4-mzX-702" value="" style="shape=process;whiteSpace=wrap;html=1;backgroundOutline=1;" vertex="1" parent="Ztc3G43oY-TmvTb4-mzX-730">
          <mxGeometry x="15" width="120" height="60" as="geometry" />
        </mxCell>
        <mxCell id="Ztc3G43oY-TmvTb4-mzX-703" value="&lt;pre&gt;Azure AD&lt;/pre&gt;" style="text;html=1;strokeColor=none;fillColor=none;align=center;verticalAlign=middle;whiteSpace=wrap;rounded=0;movable=1;resizable=1;rotatable=1;deletable=1;editable=1;locked=0;connectable=1;" vertex="1" parent="Ztc3G43oY-TmvTb4-mzX-730">
          <mxGeometry y="15.189999999999998" width="150" height="29.629629629629633" as="geometry" />
        </mxCell>
        <mxCell id="Ztc3G43oY-TmvTb4-mzX-731" value="" style="group" vertex="1" connectable="0" parent="1">
          <mxGeometry x="990" y="447" width="150" height="60" as="geometry" />
        </mxCell>
        <mxCell id="Ztc3G43oY-TmvTb4-mzX-704" value="" style="shape=process;whiteSpace=wrap;html=1;backgroundOutline=1;" vertex="1" parent="Ztc3G43oY-TmvTb4-mzX-731">
          <mxGeometry x="15" width="120" height="60" as="geometry" />
        </mxCell>
        <mxCell id="Ztc3G43oY-TmvTb4-mzX-705" value="&lt;pre&gt;Kafka&lt;/pre&gt;" style="text;html=1;strokeColor=none;fillColor=none;align=center;verticalAlign=middle;whiteSpace=wrap;rounded=0;movable=1;resizable=1;rotatable=1;deletable=1;editable=1;locked=0;connectable=1;" vertex="1" parent="Ztc3G43oY-TmvTb4-mzX-731">
          <mxGeometry x="25" y="14" width="100" height="29.63" as="geometry" />
        </mxCell>
        <mxCell id="Ztc3G43oY-TmvTb4-mzX-713" value="" style="group" vertex="1" connectable="0" parent="1">
          <mxGeometry x="230" y="484.39" width="140" height="190" as="geometry" />
        </mxCell>
        <mxCell id="Ztc3G43oY-TmvTb4-mzX-712" value="&lt;br&gt;&lt;pre style=&quot;border-color: var(--border-color); font-size: 12px; font-style: normal; font-variant-ligatures: normal; font-variant-caps: normal; font-weight: 400; letter-spacing: normal; orphans: 2; text-align: left; text-indent: 0px; text-transform: none; widows: 2; word-spacing: 0px; -webkit-text-stroke-width: 0px; background-color: rgb(251, 251, 251); text-decoration-thickness: initial; text-decoration-style: initial; text-decoration-color: initial;&quot;&gt;Firestore Cluster&lt;/pre&gt;" style="rounded=0;whiteSpace=wrap;html=1;strokeColor=none;fillColor=#CCE5FF;" vertex="1" parent="Ztc3G43oY-TmvTb4-mzX-713">
          <mxGeometry x="-10" y="-13" width="150" height="208" as="geometry" />
        </mxCell>
        <mxCell id="Ztc3G43oY-TmvTb4-mzX-714" value="" style="strokeColor=#dddddd;shadow=1;strokeWidth=1;rounded=1;absoluteArcSize=1;arcSize=30;" vertex="1" parent="Ztc3G43oY-TmvTb4-mzX-713">
          <mxGeometry y="6" width="130" height="60" as="geometry" />
        </mxCell>
        <mxCell id="Ztc3G43oY-TmvTb4-mzX-715" value="&lt;pre&gt;&lt;font color=&quot;#000000&quot;&gt;Firestore&lt;/font&gt;&lt;/pre&gt;" style="editableCssRules=.*;html=1;fontColor=#999999;shape=image;verticalLabelPosition=middle;verticalAlign=middle;labelPosition=right;align=left;spacingLeft=20;part=1;points=[];imageAspect=0;image=data:image/svg+xml,PHN2ZyB4bWxucz0iaHR0cDovL3d3dy53My5vcmcvMjAwMC9zdmciIHhtbG5zOnY9Imh0dHBzOi8vdmVjdGEuaW8vbmFubyIgd2lkdGg9IjMyMy45MDU2MTAzOTg2NzUxNSIgaGVpZ2h0PSIzNzYuNDIyMjk0OTYzNjg0MDciIHZpZXdCb3g9Ii0wLjA5NzAwMDAwMjg2MTAyMjk1IDAuMjg3OTk5OTg3NjAyMjMzOSA4NS42OTk5OTY5NDgyNDIxOSA5OS41OTUwMDEyMjA3MDMxMiI+JiN4YTs8c3R5bGUgdHlwZT0idGV4dC9jc3MiPiYjeGE7CS5zdDB7ZmlsbDojYWVjYmZhO30mI3hhOwkuc3Qxe2ZpbGw6IzY2OWRmNjt9JiN4YTsJLnN0MntmaWxsOiM0Mjg1ZjQ7fSYjeGE7PC9zdHlsZT4mI3hhOwk8cGF0aCBjbGFzcz0ic3QwIiBkPSJNLS4wOTcgNzUuODE1VjU1Ljg3NGw0Mi44NS0yMC4xODN2MTkuMDd6bTAtMzUuNDAzVjIwLjQ3MUw0Mi43NTMuMjg4djE5LjA3eiIvPiYjeGE7CTxwYXRoIGNsYXNzPSJzdDEiIGQ9Ik04NS42MDMgNzUuODE1VjU1Ljg3NGwtNDIuODUtMjAuMTgzdjE5LjA3em0wLTM1LjQwM1YyMC40NzFMNDIuNzUzLjI4OHYxOS4wN3oiLz4mI3hhOwk8cGF0aCBjbGFzcz0ic3QyIiBkPSJNNDIuNzUzIDgwLjMxNGwxNi4yMTctNy41MjUgMjEuMDg0IDkuNzE3LTM3LjMwMSAxNy4zNzd6Ii8+JiN4YTs8L3N2Zz4=;" vertex="1" parent="Ztc3G43oY-TmvTb4-mzX-714">
          <mxGeometry width="26" height="30" relative="1" as="geometry">
            <mxPoint x="17" y="15" as="offset" />
          </mxGeometry>
        </mxCell>
        <mxCell id="Ztc3G43oY-TmvTb4-mzX-716" value="" style="strokeColor=#dddddd;shadow=1;strokeWidth=1;rounded=1;absoluteArcSize=1;arcSize=28;" vertex="1" parent="Ztc3G43oY-TmvTb4-mzX-713">
          <mxGeometry y="123.62" width="130" height="60" as="geometry" />
        </mxCell>
        <mxCell id="Ztc3G43oY-TmvTb4-mzX-717" value="&lt;pre&gt;&lt;font color=&quot;#000000&quot;&gt;Firestore&lt;/font&gt;&lt;/pre&gt;" style="editableCssRules=.*;html=1;fontColor=#999999;shape=image;verticalLabelPosition=middle;verticalAlign=middle;labelPosition=right;align=left;spacingLeft=20;part=1;points=[];imageAspect=0;image=data:image/svg+xml,PHN2ZyB4bWxucz0iaHR0cDovL3d3dy53My5vcmcvMjAwMC9zdmciIHhtbG5zOnY9Imh0dHBzOi8vdmVjdGEuaW8vbmFubyIgd2lkdGg9IjMyMy45MDU2MTAzOTg2NzUxNSIgaGVpZ2h0PSIzNzYuNDIyMjk0OTYzNjg0MDciIHZpZXdCb3g9Ii0wLjA5NzAwMDAwMjg2MTAyMjk1IDAuMjg3OTk5OTg3NjAyMjMzOSA4NS42OTk5OTY5NDgyNDIxOSA5OS41OTUwMDEyMjA3MDMxMiI+JiN4YTs8c3R5bGUgdHlwZT0idGV4dC9jc3MiPiYjeGE7CS5zdDB7ZmlsbDojYWVjYmZhO30mI3hhOwkuc3Qxe2ZpbGw6IzY2OWRmNjt9JiN4YTsJLnN0MntmaWxsOiM0Mjg1ZjQ7fSYjeGE7PC9zdHlsZT4mI3hhOwk8cGF0aCBjbGFzcz0ic3QwIiBkPSJNLS4wOTcgNzUuODE1VjU1Ljg3NGw0Mi44NS0yMC4xODN2MTkuMDd6bTAtMzUuNDAzVjIwLjQ3MUw0Mi43NTMuMjg4djE5LjA3eiIvPiYjeGE7CTxwYXRoIGNsYXNzPSJzdDEiIGQ9Ik04NS42MDMgNzUuODE1VjU1Ljg3NGwtNDIuODUtMjAuMTgzdjE5LjA3em0wLTM1LjQwM1YyMC40NzFMNDIuNzUzLjI4OHYxOS4wN3oiLz4mI3hhOwk8cGF0aCBjbGFzcz0ic3QyIiBkPSJNNDIuNzUzIDgwLjMxNGwxNi4yMTctNy41MjUgMjEuMDg0IDkuNzE3LTM3LjMwMSAxNy4zNzd6Ii8+JiN4YTs8L3N2Zz4=;" vertex="1" parent="Ztc3G43oY-TmvTb4-mzX-716">
          <mxGeometry width="26" height="30" relative="1" as="geometry">
            <mxPoint x="17" y="15" as="offset" />
          </mxGeometry>
        </mxCell>
        <mxCell id="Ztc3G43oY-TmvTb4-mzX-732" value="&lt;pre&gt;Serverless VPC&lt;br&gt;Access Connector&lt;br&gt;(region 1)&lt;/pre&gt;" style="rounded=1;whiteSpace=wrap;html=1;fillColor=#CCE5FF;" vertex="1" parent="1">
          <mxGeometry x="585" y="260" width="140" height="80" as="geometry" />
        </mxCell>
        <mxCell id="Ztc3G43oY-TmvTb4-mzX-733" value="&lt;pre&gt;Serverless VPC&lt;br&gt;Access Connector&lt;br&gt;(region 2)&lt;/pre&gt;" style="rounded=1;whiteSpace=wrap;html=1;fillColor=#CCE5FF;" vertex="1" parent="1">
          <mxGeometry x="585" y="430" width="140" height="80" as="geometry" />
        </mxCell>
        <mxCell id="Ztc3G43oY-TmvTb4-mzX-739" value="" style="endArrow=none;html=1;rounded=0;strokeWidth=3;strokeColor=#CCE5FF;" edge="1" parent="1">
          <mxGeometry width="50" height="50" relative="1" as="geometry">
            <mxPoint x="-300" y="640" as="sourcePoint" />
            <mxPoint x="-300" y="310" as="targetPoint" />
          </mxGeometry>
        </mxCell>
        <mxCell id="Ztc3G43oY-TmvTb4-mzX-741" value="" style="endArrow=classic;html=1;rounded=0;strokeWidth=3;strokeColor=#CCE5FF;" edge="1" parent="1" target="Ztc3G43oY-TmvTb4-mzX-677">
          <mxGeometry width="50" height="50" relative="1" as="geometry">
            <mxPoint x="-300" y="640" as="sourcePoint" />
            <mxPoint x="-250" y="640" as="targetPoint" />
            <Array as="points">
              <mxPoint x="-160" y="640" />
            </Array>
          </mxGeometry>
        </mxCell>
        <mxCell id="Ztc3G43oY-TmvTb4-mzX-745" value="" style="endArrow=classic;html=1;rounded=0;strokeWidth=3;strokeColor=#CCE5FF;" edge="1" parent="1">
          <mxGeometry width="50" height="50" relative="1" as="geometry">
            <mxPoint x="-300" y="310" as="sourcePoint" />
            <mxPoint x="50" y="264.82" as="targetPoint" />
            <Array as="points">
              <mxPoint x="-190" y="310" />
            </Array>
          </mxGeometry>
        </mxCell>
        <mxCell id="Ztc3G43oY-TmvTb4-mzX-753" value="" style="endArrow=classic;html=1;rounded=0;strokeWidth=3;strokeColor=#CCE5FF;exitX=0.55;exitY=1.006;exitDx=0;exitDy=0;exitPerimeter=0;" edge="1" parent="1" source="Ztc3G43oY-TmvTb4-mzX-663" target="Ztc3G43oY-TmvTb4-mzX-667">
          <mxGeometry width="50" height="50" relative="1" as="geometry">
            <mxPoint x="-430" y="789" as="sourcePoint" />
            <mxPoint x="-430" y="850" as="targetPoint" />
          </mxGeometry>
        </mxCell>
        <mxCell id="Ztc3G43oY-TmvTb4-mzX-754" value="" style="endArrow=classic;html=1;rounded=0;strokeWidth=3;strokeColor=#CCE5FF;edgeStyle=orthogonalEdgeStyle;entryX=0.007;entryY=0.463;entryDx=0;entryDy=0;entryPerimeter=0;" edge="1" parent="1" target="Ztc3G43oY-TmvTb4-mzX-719">
          <mxGeometry width="50" height="50" relative="1" as="geometry">
            <mxPoint x="190" y="480" as="sourcePoint" />
            <mxPoint x="-30.799999999999997" y="770" as="targetPoint" />
            <Array as="points">
              <mxPoint x="195" y="297" />
            </Array>
          </mxGeometry>
        </mxCell>
        <mxCell id="Ztc3G43oY-TmvTb4-mzX-755" value="" style="endArrow=classic;html=1;rounded=0;strokeWidth=3;strokeColor=#CCE5FF;edgeStyle=orthogonalEdgeStyle;entryX=0;entryY=0.438;entryDx=0;entryDy=0;entryPerimeter=0;" edge="1" parent="1" target="Ztc3G43oY-TmvTb4-mzX-721">
          <mxGeometry width="50" height="50" relative="1" as="geometry">
            <mxPoint x="190" y="480" as="sourcePoint" />
            <mxPoint x="-90" y="820" as="targetPoint" />
            <Array as="points">
              <mxPoint x="190" y="465" />
            </Array>
          </mxGeometry>
        </mxCell>
        <mxCell id="Ztc3G43oY-TmvTb4-mzX-756" value="&lt;pre&gt;&lt;pre style=&quot;border-color: var(--border-color);&quot;&gt;&lt;font color=&quot;#cfac5b&quot; style=&quot;border-color: var(--border-color);&quot;&gt;Firebase Projects&lt;/font&gt;&lt;/pre&gt;&lt;/pre&gt;" style="text;html=1;strokeColor=none;fillColor=none;align=center;verticalAlign=middle;whiteSpace=wrap;rounded=0;" vertex="1" parent="1">
          <mxGeometry x="290.71" y="210" width="130" height="40" as="geometry" />
        </mxCell>
        <mxCell id="Ztc3G43oY-TmvTb4-mzX-757" value="&lt;pre&gt;&lt;pre style=&quot;border-color: var(--border-color);&quot;&gt;&lt;font color=&quot;#cfac5b&quot; style=&quot;border-color: var(--border-color);&quot;&gt;CN hub projects&lt;/font&gt;&lt;/pre&gt;&lt;/pre&gt;" style="text;html=1;strokeColor=none;fillColor=none;align=center;verticalAlign=middle;whiteSpace=wrap;rounded=0;" vertex="1" parent="1">
          <mxGeometry x="595" y="208" width="130" height="40" as="geometry" />
        </mxCell>
        <mxCell id="Ztc3G43oY-TmvTb4-mzX-759" value="" style="endArrow=classic;html=1;rounded=0;strokeWidth=3;strokeColor=#CCE5FF;exitX=1;exitY=0.475;exitDx=0;exitDy=0;exitPerimeter=0;entryX=0.007;entryY=0.475;entryDx=0;entryDy=0;entryPerimeter=0;" edge="1" parent="1" source="Ztc3G43oY-TmvTb4-mzX-721" target="Ztc3G43oY-TmvTb4-mzX-733">
          <mxGeometry width="50" height="50" relative="1" as="geometry">
            <mxPoint x="-400" y="790" as="sourcePoint" />
            <mxPoint x="-50" y="790" as="targetPoint" />
          </mxGeometry>
        </mxCell>
        <mxCell id="Ztc3G43oY-TmvTb4-mzX-760" value="" style="endArrow=classic;html=1;rounded=0;strokeWidth=3;strokeColor=#CCE5FF;exitX=1.014;exitY=0.525;exitDx=0;exitDy=0;exitPerimeter=0;entryX=0.014;entryY=0.538;entryDx=0;entryDy=0;entryPerimeter=0;" edge="1" parent="1" source="Ztc3G43oY-TmvTb4-mzX-719" target="Ztc3G43oY-TmvTb4-mzX-732">
          <mxGeometry width="50" height="50" relative="1" as="geometry">
            <mxPoint x="540" y="478" as="sourcePoint" />
            <mxPoint x="596" y="478" as="targetPoint" />
          </mxGeometry>
        </mxCell>
        <mxCell id="Ztc3G43oY-TmvTb4-mzX-762" value="" style="endArrow=classic;html=1;rounded=0;exitX=0.507;exitY=0.038;exitDx=0;exitDy=0;exitPerimeter=0;edgeStyle=orthogonalEdgeStyle;entryX=-0.017;entryY=0.365;entryDx=0;entryDy=0;entryPerimeter=0;strokeColor=#FFD470;strokeWidth=3;" edge="1" parent="1" source="Ztc3G43oY-TmvTb4-mzX-721" target="Ztc3G43oY-TmvTb4-mzX-680">
          <mxGeometry width="50" height="50" relative="1" as="geometry">
            <mxPoint x="510" y="440" as="sourcePoint" />
            <mxPoint x="520" y="80" as="targetPoint" />
            <Array as="points">
              <mxPoint x="461" y="76" />
            </Array>
          </mxGeometry>
        </mxCell>
        <mxCell id="Ztc3G43oY-TmvTb4-mzX-719" value="Firebase &#xa;Cloud Funtions" style="strokeColor=#dddddd;shadow=1;strokeWidth=1;rounded=1;absoluteArcSize=1;arcSize=26;movable=1;resizable=1;rotatable=1;deletable=1;editable=1;locked=0;connectable=1;fontFamily=Lucida Console;fillColor=#CCE5FF;" vertex="1" parent="1">
          <mxGeometry x="390" y="260" width="140" height="80" as="geometry" />
        </mxCell>
        <mxCell id="Ztc3G43oY-TmvTb4-mzX-724" value="&lt;br&gt;" style="sketch=0;html=1;verticalAlign=top;labelPosition=center;verticalLabelPosition=bottom;align=center;spacingTop=-6;fontSize=11;fontStyle=1;fontColor=#999999;shape=image;aspect=fixed;imageAspect=0;image=data:image/svg+xml,PHN2ZyB4bWxucz0iaHR0cDovL3d3dy53My5vcmcvMjAwMC9zdmciIHhtbG5zOnY9Imh0dHBzOi8vdmVjdGEuaW8vbmFubyIgd2lkdGg9IjIwIiBoZWlnaHQ9IjE5Ljk4OTk5OTc3MTExODE2NCIgdmlld0JveD0iMCAwIDIwIDE5Ljk4OTk5OTc3MTExODE2NCI+JiN4YTsJPHN0eWxlIHR5cGU9InRleHQvY3NzIj4mI3hhOwkuc3Qwe2ZpbGw6IzQyODVmNDt9JiN4YTsJLnN0MXtmaWxsOiM2NjlkZjY7fSYjeGE7CS5zdDJ7ZmlsbDojYWVjYmZhO30mI3hhOwk8L3N0eWxlPiYjeGE7CTxwYXRoIGNsYXNzPSJzdDEiIGQ9Ik0zIDMuOTlMMCA2LjQydjcuMTNsMyAyLjQ0eiIvPiYjeGE7CTxwYXRoIGNsYXNzPSJzdDAiIGQ9Ik0zIDMuOTlsLTMgNCAzLTJ6bS0zIDhsMyA0di0yeiIvPiYjeGE7CTxwYXRoIGNsYXNzPSJzdDIiIGQ9Ik0wIDE1Ljk5bDQgNCAyLTItNi02em0uMDEtOEw1Ljk5IDJsLTItMkwwIDMuOTl6Ii8+JiN4YTsJPHBhdGggY2xhc3M9InN0MSIgZD0iTTE3IDE2bDMtMi40MlY2LjQ0TDE3IDR6Ii8+JiN4YTsJPHBhdGggY2xhc3M9InN0MCIgZD0iTTE3IDE2bDMtNC0zIDJ6bTMtOGwtMy00djJ6Ii8+JiN4YTsJPGcgY2xhc3M9InN0MiI+JiN4YTsJCTxwYXRoIGQ9Ik0yMCA0bC00LTQtMiAyIDYgNnptLS4wMSA4bC01Ljk4IDUuOTkgMiAyTDIwIDE2eiIvPiYjeGE7CQk8Y2lyY2xlIGN4PSI2IiBjeT0iOS45OSIgcj0iMSIvPiYjeGE7CQk8Y2lyY2xlIGN4PSIxMCIgY3k9IjkuOTkiIHI9IjEiLz4mI3hhOwkJPGNpcmNsZSBjeD0iMTMuOTkiIGN5PSI5Ljk5IiByPSIxIi8+JiN4YTsJPC9nPiYjeGE7PC9zdmc+;movable=1;resizable=1;rotatable=1;deletable=1;editable=1;locked=0;connectable=1;" vertex="1" parent="1">
          <mxGeometry x="396" y="264.82" width="24.71" height="20" as="geometry" />
        </mxCell>
        <mxCell id="Ztc3G43oY-TmvTb4-mzX-763" value="" style="endArrow=classic;html=1;rounded=0;exitX=1.021;exitY=0.475;exitDx=0;exitDy=0;exitPerimeter=0;edgeStyle=orthogonalEdgeStyle;entryX=0.542;entryY=0.033;entryDx=0;entryDy=0;entryPerimeter=0;strokeColor=#FFD470;strokeWidth=3;" edge="1" parent="1" source="Ztc3G43oY-TmvTb4-mzX-639" target="Ztc3G43oY-TmvTb4-mzX-702">
          <mxGeometry width="50" height="50" relative="1" as="geometry">
            <mxPoint x="471" y="443" as="sourcePoint" />
            <mxPoint x="563" y="86" as="targetPoint" />
            <Array as="points">
              <mxPoint x="360" y="268" />
              <mxPoint x="360" y="240" />
              <mxPoint x="1070" y="240" />
            </Array>
          </mxGeometry>
        </mxCell>
        <mxCell id="Ztc3G43oY-TmvTb4-mzX-764" value="" style="endArrow=classic;html=1;rounded=0;strokeColor=#FFD470;strokeWidth=3;" edge="1" parent="1" target="Ztc3G43oY-TmvTb4-mzX-700">
          <mxGeometry width="50" height="50" relative="1" as="geometry">
            <mxPoint x="890" y="240" as="sourcePoint" />
            <mxPoint x="1080" y="273" as="targetPoint" />
          </mxGeometry>
        </mxCell>
        <mxCell id="Ztc3G43oY-TmvTb4-mzX-765" value="" style="endArrow=classic;html=1;rounded=0;exitX=1;exitY=0.5;exitDx=0;exitDy=0;exitPerimeter=0;edgeStyle=orthogonalEdgeStyle;strokeColor=#FFD470;strokeWidth=3;" edge="1" parent="1" source="Ztc3G43oY-TmvTb4-mzX-732" target="Ztc3G43oY-TmvTb4-mzX-705">
          <mxGeometry width="50" height="50" relative="1" as="geometry">
            <mxPoint x="202" y="278" as="sourcePoint" />
            <mxPoint x="1080" y="273" as="targetPoint" />
            <Array as="points">
              <mxPoint x="780" y="300" />
              <mxPoint x="780" y="480" />
              <mxPoint x="1065" y="480" />
            </Array>
          </mxGeometry>
        </mxCell>
        <mxCell id="Ztc3G43oY-TmvTb4-mzX-767" value="" style="endArrow=classic;html=1;rounded=0;exitX=1;exitY=0.575;exitDx=0;exitDy=0;exitPerimeter=0;strokeColor=#FFD470;strokeWidth=3;" edge="1" parent="1" source="Ztc3G43oY-TmvTb4-mzX-733">
          <mxGeometry width="50" height="50" relative="1" as="geometry">
            <mxPoint x="1210" y="400" as="sourcePoint" />
            <mxPoint x="1010" y="480" as="targetPoint" />
          </mxGeometry>
        </mxCell>
        <mxCell id="Ztc3G43oY-TmvTb4-mzX-768" value="&lt;pre&gt;VPC FW&lt;br/&gt;(global)&lt;/pre&gt;" style="rounded=1;whiteSpace=wrap;html=1;fillColor=#CCE5FF;" vertex="1" parent="1">
          <mxGeometry x="590" y="790" width="140" height="80" as="geometry" />
        </mxCell>
        <mxCell id="Ztc3G43oY-TmvTb4-mzX-769" value="" style="endArrow=classic;html=1;rounded=0;strokeWidth=3;strokeColor=#CCE5FF;exitX=1.019;exitY=0.6;exitDx=0;exitDy=0;exitPerimeter=0;" edge="1" parent="1" source="Ztc3G43oY-TmvTb4-mzX-590">
          <mxGeometry width="50" height="50" relative="1" as="geometry">
            <mxPoint x="-290" y="380" as="sourcePoint" />
            <mxPoint x="-300" y="476" as="targetPoint" />
          </mxGeometry>
        </mxCell>
      </root>
    </mxGraphModel>
  </diagram>
</mxfile>
